<?xml version="1.0" encoding="UTF-8"?>
<!DOCTYPE svg PUBLIC "-//W3C//DTD SVG 1.1//EN" "http://www.w3.org/Graphics/SVG/1.1/DTD/svg11.dtd">
<svg xmlns="http://www.w3.org/2000/svg" version="1.1" width="821px" height="304px" style="shape-rendering:geometricPrecision; text-rendering:geometricPrecision; image-rendering:optimizeQuality; fill-rule:evenodd; clip-rule:evenodd" xmlns:xlink="http://www.w3.org/1999/xlink">
<g><path style="opacity:1" fill="#f58222" d="M 424.5,52.5 C 428.5,52.5 432.5,52.5 436.5,52.5C 436.5,71.1667 436.5,89.8333 436.5,108.5C 446.833,108.5 457.167,108.5 467.5,108.5C 467.5,112.833 467.5,117.167 467.5,121.5C 457.319,121.173 447.319,121.506 437.5,122.5C 437.5,160.833 437.5,199.167 437.5,237.5C 433.167,237.5 428.833,237.5 424.5,237.5C 424.5,198.833 424.5,160.167 424.5,121.5C 418.5,121.5 412.5,121.5 406.5,121.5C 406.5,117.167 406.5,112.833 406.5,108.5C 412.5,108.5 418.5,108.5 424.5,108.5C 424.5,89.8333 424.5,71.1667 424.5,52.5 Z"/></g>
<g><path style="opacity:0.739" fill="#fbb57c" d="M 424.5,52.5 C 424.5,52.1667 424.5,51.8333 424.5,51.5C 428.833,51.5 433.167,51.5 437.5,51.5C 437.5,70.1667 437.5,88.8333 437.5,107.5C 447.681,107.173 457.681,107.506 467.5,108.5C 457.167,108.5 446.833,108.5 436.5,108.5C 436.5,89.8333 436.5,71.1667 436.5,52.5C 432.5,52.5 428.5,52.5 424.5,52.5 Z"/></g>
<g><path style="opacity:0.25" fill="#fccfaa" d="M 592.5,120.5 C 592.217,121.289 591.717,121.956 591,122.5C 590.5,99.169 590.333,75.8357 590.5,52.5C 585.833,52.5 581.167,52.5 576.5,52.5C 576.5,114.167 576.5,175.833 576.5,237.5C 576.167,237.5 575.833,237.5 575.5,237.5C 575.5,175.5 575.5,113.5 575.5,51.5C 580.833,51.5 586.167,51.5 591.5,51.5C 591.169,74.6727 591.502,97.6727 592.5,120.5 Z"/></g>
<g><path style="opacity:1" fill="#f58424" d="M 592.5,120.5 C 594.167,119.5 595.5,118.167 596.5,116.5C 599.782,115.699 602.448,114.032 604.5,111.5C 604.842,110.662 605.508,110.328 606.5,110.5C 609.152,110.59 611.485,109.924 613.5,108.5C 634.486,101.829 652.153,106.829 666.5,123.5C 666.427,125.027 667.094,126.027 668.5,126.5C 668.427,128.027 669.094,129.027 670.5,129.5C 670.427,131.027 671.094,132.027 672.5,132.5C 672.41,135.152 673.076,137.485 674.5,139.5C 675.434,140.568 675.768,141.901 675.5,143.5C 676.438,174.819 676.771,206.152 676.5,237.5C 671.833,237.5 667.167,237.5 662.5,237.5C 662.667,209.165 662.5,180.831 662,152.5C 661.851,148.867 661.018,145.534 659.5,142.5C 656.647,136.64 652.98,131.307 648.5,126.5C 648.027,125.094 647.027,124.427 645.5,124.5C 630.053,118.187 615.72,120.187 602.5,130.5C 598.399,129.928 596.399,131.928 596.5,136.5C 595.404,139.032 594.071,141.365 592.5,143.5C 591.732,144.263 591.232,145.263 591,146.5C 590.5,176.832 590.333,207.165 590.5,237.5C 585.833,237.5 581.167,237.5 576.5,237.5C 576.5,175.833 576.5,114.167 576.5,52.5C 581.167,52.5 585.833,52.5 590.5,52.5C 590.333,75.8357 590.5,99.169 591,122.5C 591.717,121.956 592.217,121.289 592.5,120.5 Z"/></g>
<g><path style="opacity:1" fill="#f6882e" d="M 110.5,107.5 C 111.469,108.309 112.302,109.309 113,110.5C 114.011,109.663 115.178,109.33 116.5,109.5C 119.485,110.326 122.151,111.659 124.5,113.5C 125.035,115.446 126.368,116.446 128.5,116.5C 131.245,117.737 133.578,119.57 135.5,122C 132.631,125.038 129.631,127.871 126.5,130.5C 125.5,130.5 124.5,130.5 123.5,130.5C 122.738,128.738 121.404,127.738 119.5,127.5C 119.027,126.094 118.027,125.427 116.5,125.5C 113.987,122.569 110.653,121.235 106.5,121.5C 104.379,121.675 102.379,121.341 100.5,120.5C 98.866,119.839 97.0326,119.506 95,119.5C 91.8502,119.36 89.0169,120.027 86.5,121.5C 84.8333,121.5 83.1667,121.5 81.5,121.5C 81.5,122.5 81.5,123.5 81.5,124.5C 79.1205,123.433 78.1205,124.433 78.5,127.5C 78.0679,128.71 77.4013,129.71 76.5,130.5C 74.4686,133.708 74.1353,137.041 75.5,140.5C 76.4582,142.302 77.1249,144.302 77.5,146.5C 77.427,148.027 78.0937,149.027 79.5,149.5C 81.5248,151.196 83.5248,152.863 85.5,154.5C 86.693,156.054 87.8596,157.721 89,159.5C 89.6708,158.748 90.5041,158.414 91.5,158.5C 105.463,161.817 118.463,167.317 130.5,175C 132.373,176.704 134.04,178.537 135.5,180.5C 135.427,182.027 136.094,183.027 137.5,183.5C 138.674,184.514 139.34,185.847 139.5,187.5C 141.182,194.712 141.848,202.045 141.5,209.5C 140.734,215.033 138.4,219.699 134.5,223.5C 133.603,222.402 132.77,222.402 132,223.5C 131.51,224.793 131.343,226.127 131.5,227.5C 120.571,238.536 107.238,243.369 91.5,242C 86.0607,241.562 81.0607,240.062 76.5,237.5C 76.0269,236.094 75.0269,235.427 73.5,235.5C 73.0269,234.094 72.0269,233.427 70.5,233.5C 70.0269,232.094 69.0269,231.427 67.5,231.5C 66.5,231.167 65.8333,230.5 65.5,229.5C 63.4309,226.427 60.7642,224.094 57.5,222.5C 55.7484,220.754 54.4151,218.754 53.5,216.5C 53.7329,214.938 54.3995,213.605 55.5,212.5C 58.0892,211.581 60.0892,209.914 61.5,207.5C 62.609,207.443 63.609,207.11 64.5,206.5C 65.0798,208.749 66.4131,210.415 68.5,211.5C 71.859,214.529 75.1924,217.529 78.5,220.5C 79.0347,222.446 80.368,223.446 82.5,223.5C 90.5845,226.174 98.9178,227.174 107.5,226.5C 111.081,226.862 114.081,225.862 116.5,223.5C 118.475,221.863 120.475,220.196 122.5,218.5C 123.906,218.027 124.573,217.027 124.5,215.5C 124.767,213.035 125.434,210.701 126.5,208.5C 127.647,204.354 127.814,200.02 127,195.5C 126.722,194.584 126.222,193.918 125.5,193.5C 123.916,190.574 121.916,187.908 119.5,185.5C 119.027,184.094 118.027,183.427 116.5,183.5C 113.792,179.983 110.126,178.316 105.5,178.5C 103.597,178.204 101.93,177.537 100.5,176.5C 98.4855,175.076 96.1522,174.41 93.5,174.5C 91.4855,173.076 89.1522,172.41 86.5,172.5C 84.7162,172.107 83.0495,171.441 81.5,170.5C 81.0269,169.094 80.0269,168.427 78.5,168.5C 77.5084,168.672 76.8417,168.338 76.5,167.5C 76.0269,166.094 75.0269,165.427 73.5,165.5C 72.5,165.167 71.8333,164.5 71.5,163.5C 70.8333,162.167 69.8333,161.167 68.5,160.5C 61.2189,153.319 58.5522,144.653 60.5,134.5C 61.9238,132.485 62.5905,130.152 62.5,127.5C 62.6596,125.847 63.3263,124.514 64.5,123.5C 65.9063,123.027 66.573,122.027 66.5,120.5C 69.6187,116.043 73.6187,112.709 78.5,110.5C 79.4959,110.414 80.3292,110.748 81,111.5C 83.8634,109.153 87.0301,107.486 90.5,106.5C 92.9779,105.836 95.6445,105.503 98.5,105.5C 102.777,105.337 106.777,106.003 110.5,107.5 Z"/></g>
<g><path style="opacity:1" fill="#f58425" d="M 236.5,117.5 C 236.738,119.404 237.738,120.738 239.5,121.5C 239.738,123.404 240.738,124.738 242.5,125.5C 244.625,128.088 245.958,131.088 246.5,134.5C 246.926,138.427 247.926,142.093 249.5,145.5C 250.473,147.948 250.806,150.615 250.5,153.5C 250.5,181.5 250.5,209.5 250.5,237.5C 245.833,237.5 241.167,237.5 236.5,237.5C 236.831,209.328 236.498,181.328 235.5,153.5C 234.489,144.805 231.489,136.805 226.5,129.5C 226.167,127.167 224.833,125.833 222.5,125.5C 221.32,123.087 219.32,122.087 216.5,122.5C 214.379,122.675 212.379,122.341 210.5,121.5C 207.854,120.836 205.021,120.502 202,120.5C 197.558,120.326 193.391,120.993 189.5,122.5C 184,124.985 179,128.318 174.5,132.5C 173.603,131.402 172.77,131.402 172,132.5C 171.51,133.793 171.343,135.127 171.5,136.5C 169.63,141.442 167.964,146.442 166.5,151.5C 165.502,179.995 165.169,208.662 165.5,237.5C 160.833,237.5 156.167,237.5 151.5,237.5C 151.5,194.167 151.5,150.833 151.5,107.5C 156.167,107.5 160.833,107.5 165.5,107.5C 165.334,112.844 165.501,118.177 166,123.5C 167.039,122.756 167.539,121.756 167.5,120.5C 167.833,119.5 168.5,118.833 169.5,118.5C 171.749,117.92 173.415,116.587 174.5,114.5C 175.659,112.75 177.326,111.75 179.5,111.5C 180.496,111.414 181.329,111.748 182,112.5C 182.317,110.699 182.984,110.366 184,111.5C 186.946,109.356 190.112,107.689 193.5,106.5C 205.121,103.372 216.454,104.539 227.5,110C 230.94,112.042 233.94,114.542 236.5,117.5 Z"/></g>
<g><path style="opacity:0.115" fill="#fde2cb" d="M 424.5,51.5 C 424.5,51.8333 424.5,52.1667 424.5,52.5C 424.5,71.1667 424.5,89.8333 424.5,108.5C 418.5,108.5 412.5,108.5 406.5,108.5C 406.167,108.5 405.833,108.5 405.5,108.5C 411.31,107.51 417.31,107.177 423.5,107.5C 423.17,88.6592 423.503,69.9925 424.5,51.5 Z"/></g>
<g><path style="opacity:0.859" fill="#fcb983" d="M 316.5,107.5 C 314.485,108.924 312.152,109.59 309.5,109.5C 311.515,108.076 313.848,107.41 316.5,107.5 Z"/></g>
<g><path style="opacity:1" fill="#f6862a" d="M 348.5,108.5 C 350.896,110.951 353.896,111.951 357.5,111.5C 362.197,113.178 366.197,115.844 369.5,119.5C 369.973,120.906 370.973,121.573 372.5,121.5C 373.5,121.833 374.167,122.5 374.5,123.5C 375.08,125.749 376.413,127.415 378.5,128.5C 379.5,128.833 380.167,129.5 380.5,130.5C 380.369,131.376 380.702,132.043 381.5,132.5C 382.497,124.862 382.831,117.196 382.5,109.5C 387.833,109.5 393.167,109.5 398.5,109.5C 398.5,152.5 398.5,195.5 398.5,238.5C 393.167,238.5 387.833,238.5 382.5,238.5C 382.83,231.468 382.497,224.468 381.5,217.5C 380.702,217.957 380.369,218.624 380.5,219.5C 362.358,239.546 340.024,246.546 313.5,240.5C 311.898,238.926 309.898,238.259 307.5,238.5C 304.843,238.065 302.509,237.065 300.5,235.5C 300.027,234.094 299.027,233.427 297.5,233.5C 295.973,233.573 294.973,232.906 294.5,231.5C 294.027,230.094 293.027,229.427 291.5,229.5C 290.738,227.738 289.404,226.738 287.5,226.5C 282.052,222.391 277.719,217.391 274.5,211.5C 274.759,209.011 273.759,207.344 271.5,206.5C 267.541,200.131 265.041,193.131 264,185.5C 263.013,175.694 263.513,166.028 265.5,156.5C 267.472,153.916 268.472,150.916 268.5,147.5C 268.992,145.181 269.992,143.181 271.5,141.5C 272.906,141.027 273.573,140.027 273.5,138.5C 274.906,138.027 275.573,137.027 275.5,135.5C 276.906,135.027 277.573,134.027 277.5,132.5C 277.833,131.5 278.5,130.833 279.5,130.5C 282.833,127.833 285.833,124.833 288.5,121.5C 290.749,120.92 292.415,119.587 293.5,117.5C 295.027,117.573 296.027,116.906 296.5,115.5C 300.144,112.18 304.478,110.18 309.5,109.5C 312.152,109.59 314.485,108.924 316.5,107.5C 327.253,104.696 337.92,105.03 348.5,108.5 Z M 342.5,123.5 C 347.081,125.14 351.748,126.807 356.5,128.5C 356.973,129.906 357.973,130.573 359.5,130.5C 359.973,131.906 360.973,132.573 362.5,132.5C 364.833,135.5 367.5,138.167 370.5,140.5C 371.512,141.872 372.512,143.205 373.5,144.5C 374.026,146.23 375.026,147.564 376.5,148.5C 381.191,158.979 383.191,169.979 382.5,181.5C 381.51,185.385 380.51,189.385 379.5,193.5C 377.895,196.378 376.561,199.378 375.5,202.5C 374.094,202.973 373.427,203.973 373.5,205.5C 372.094,205.973 371.427,206.973 371.5,208.5C 369.167,210.167 367.167,212.167 365.5,214.5C 363.596,214.738 362.262,215.738 361.5,217.5C 358.128,219.186 354.795,220.853 351.5,222.5C 349.597,222.796 347.93,223.463 346.5,224.5C 338.195,225.332 329.862,225.665 321.5,225.5C 317.175,224.054 312.842,222.387 308.5,220.5C 307.71,219.599 306.71,218.932 305.5,218.5C 300.873,215.209 296.54,211.542 292.5,207.5C 292.573,205.973 291.906,204.973 290.5,204.5C 290.573,202.973 289.906,201.973 288.5,201.5C 286.831,197.496 285.164,193.496 283.5,189.5C 283.279,186.933 282.612,184.599 281.5,182.5C 280.045,166.874 284.045,152.874 293.5,140.5C 295.5,139.167 297.167,137.5 298.5,135.5C 311.288,125.068 325.955,121.068 342.5,123.5 Z"/></g>
<g><path style="opacity:0.875" fill="#fbb77f" d="M 506.5,107.5 C 504.485,108.924 502.152,109.59 499.5,109.5C 501.515,108.076 503.848,107.41 506.5,107.5 Z"/></g>
<g><path style="opacity:1" fill="#f6882d" d="M 538.5,108.5 C 540.557,110.856 543.224,111.856 546.5,111.5C 551.634,112.899 555.967,115.565 559.5,119.5C 559.783,120.289 560.283,120.956 561,121.5C 561.167,124.5 561.333,127.5 561.5,130.5C 561.483,133.913 560.816,136.913 559.5,139.5C 558.833,136.833 557.167,135.167 554.5,134.5C 553.5,134.167 552.833,133.5 552.5,132.5C 552.027,131.094 551.027,130.427 549.5,130.5C 549.027,129.094 548.027,128.427 546.5,128.5C 544.597,128.204 542.93,127.537 541.5,126.5C 539.081,124.138 536.081,123.138 532.5,123.5C 516.535,121.221 502.202,124.888 489.5,134.5C 488.577,133.697 487.577,133.53 486.5,134C 483.593,135.623 482.593,137.79 483.5,140.5C 472.772,154.418 469.105,170.084 472.5,187.5C 472.89,190.839 473.39,194.173 474,197.5C 475.113,198.305 476.279,198.972 477.5,199.5C 478.338,199.842 478.672,200.508 478.5,201.5C 478.427,203.027 479.094,204.027 480.5,204.5C 480.427,206.027 481.094,207.027 482.5,207.5C 486.54,211.542 490.873,215.209 495.5,218.5C 495.821,220.048 496.821,220.715 498.5,220.5C 503.031,222.566 507.697,224.232 512.5,225.5C 515.649,226.165 518.982,226.498 522.5,226.5C 527.437,226.7 532.104,226.033 536.5,224.5C 540.645,222.264 544.978,220.264 549.5,218.5C 551.027,218.573 552.027,217.906 552.5,216.5C 554.404,216.262 555.738,215.262 556.5,213.5C 557.5,211.833 558.833,210.5 560.5,209.5C 561.49,215.31 561.823,221.31 561.5,227.5C 549.774,237.912 535.941,242.912 520,242.5C 514.579,242.674 509.413,242.007 504.5,240.5C 502.485,239.076 500.152,238.41 497.5,238.5C 494.088,237.925 491.088,236.592 488.5,234.5C 488.027,233.094 487.027,232.427 485.5,232.5C 484.738,230.738 483.404,229.738 481.5,229.5C 481.027,228.094 480.027,227.427 478.5,227.5C 471.669,222.344 466.336,216.01 462.5,208.5C 462.715,206.821 462.048,205.821 460.5,205.5C 458.337,202.166 457.004,198.5 456.5,194.5C 456.435,191.572 455.768,188.905 454.5,186.5C 453.186,178.068 453.186,169.735 454.5,161.5C 456.074,158.093 457.074,154.427 457.5,150.5C 458.042,147.088 459.375,144.088 461.5,141.5C 462.906,141.027 463.573,140.027 463.5,138.5C 464.906,138.027 465.573,137.027 465.5,135.5C 465.738,133.596 466.738,132.262 468.5,131.5C 470.262,130.738 471.262,129.404 471.5,127.5C 471.833,126.5 472.5,125.833 473.5,125.5C 475.749,124.92 477.415,123.587 478.5,121.5C 480.749,120.92 482.415,119.587 483.5,117.5C 485.027,117.573 486.027,116.906 486.5,115.5C 488.027,115.573 489.027,114.906 489.5,113.5C 490.514,112.326 491.847,111.66 493.5,111.5C 495.698,111.88 497.365,111.213 498.5,109.5C 498.833,109.5 499.167,109.5 499.5,109.5C 502.152,109.59 504.485,108.924 506.5,107.5C 517.253,104.696 527.92,105.03 538.5,108.5 Z"/></g>
<g><path style="opacity:1" fill="#feb47b" d="M 110.5,107.5 C 112.786,107.595 114.786,108.262 116.5,109.5C 115.178,109.33 114.011,109.663 113,110.5C 112.302,109.309 111.469,108.309 110.5,107.5 Z"/></g>
<g><path style="opacity:0.537" fill="#fccba2" d="M 151.5,107.5 C 151.5,150.833 151.5,194.167 151.5,237.5C 156.167,237.5 160.833,237.5 165.5,237.5C 165.169,208.662 165.502,179.995 166.5,151.5C 166.5,180.5 166.5,209.5 166.5,238.5C 161.167,238.5 155.833,238.5 150.5,238.5C 150.168,194.663 150.501,150.997 151.5,107.5 Z"/></g>
<g><path style="opacity:0.142" fill="#fde7d5" d="M 165.5,107.5 C 166.167,111.833 166.833,116.167 167.5,120.5C 167.539,121.756 167.039,122.756 166,123.5C 165.501,118.177 165.334,112.844 165.5,107.5 Z"/></g>
<g><path style="opacity:0.78" fill="#fdbf8d" d="M 613.5,108.5 C 611.485,109.924 609.152,110.59 606.5,110.5C 608.515,109.076 610.848,108.41 613.5,108.5 Z"/></g>
<g><path style="opacity:0.831" fill="#fec292" d="M 734.5,109.5 C 731.098,109.342 727.764,109.676 724.5,110.5C 727.574,107.135 730.908,106.801 734.5,109.5 Z"/></g>
<g><path style="opacity:1" fill="#fcab6c" d="M 90.5,106.5 C 87.0301,107.486 83.8634,109.153 81,111.5C 80.3292,110.748 79.4959,110.414 78.5,110.5C 81.9555,107.792 85.9555,106.459 90.5,106.5 Z"/></g>
<g><path style="opacity:1" fill="#feb074" d="M 348.5,108.5 C 351.785,108.928 354.785,109.928 357.5,111.5C 353.896,111.951 350.896,110.951 348.5,108.5 Z"/></g>
<g><path style="opacity:0.282" fill="#fcdabe" d="M 380.5,219.5 C 380.369,218.624 380.702,217.957 381.5,217.5C 382.497,224.468 382.83,231.468 382.5,238.5C 387.833,238.5 393.167,238.5 398.5,238.5C 398.5,195.5 398.5,152.5 398.5,109.5C 393.167,109.5 387.833,109.5 382.5,109.5C 382.831,117.196 382.497,124.862 381.5,132.5C 380.702,132.043 380.369,131.376 380.5,130.5C 381.492,123.352 381.825,116.019 381.5,108.5C 387.5,108.5 393.5,108.5 399.5,108.5C 399.5,152.167 399.5,195.833 399.5,239.5C 393.5,239.5 387.5,239.5 381.5,239.5C 381.824,232.646 381.491,225.979 380.5,219.5 Z"/></g>
<g><path style="opacity:0.914" fill="#febd8a" d="M 498.5,109.5 C 497.365,111.213 495.698,111.88 493.5,111.5C 494.93,110.463 496.597,109.796 498.5,109.5 Z"/></g>
<g><path style="opacity:1" fill="#fdac6f" d="M 538.5,108.5 C 541.542,108.733 544.208,109.733 546.5,111.5C 543.224,111.856 540.557,110.856 538.5,108.5 Z"/></g>
<g><path style="opacity:1" fill="#f99343" d="M 709.5,109.5 C 709.036,112.136 708.703,114.803 708.5,117.5C 708.316,120.205 708.983,122.538 710.5,124.5C 713.837,124.813 716.171,123.48 717.5,120.5C 718.906,120.027 719.573,119.027 719.5,117.5C 720.01,114.326 721.677,111.992 724.5,110.5C 727.764,109.676 731.098,109.342 734.5,109.5C 736.888,110.219 738.388,111.885 739,114.5C 739.778,119.584 739.611,124.584 738.5,129.5C 736.958,130.301 735.292,130.634 733.5,130.5C 733.507,126.073 733.34,121.406 733,116.5C 730.844,113.939 728.677,113.939 726.5,116.5C 724.241,117.344 723.241,119.011 723.5,121.5C 721.241,122.344 720.241,124.011 720.5,126.5C 717.25,131.49 712.916,132.657 707.5,130C 706.177,129.184 705.511,128.017 705.5,126.5C 705.5,120.833 705.5,115.167 705.5,109.5C 706.833,108.167 708.167,108.167 709.5,109.5 Z"/></g>
<g><path style="opacity:1" fill="#faa25d" d="M 193.5,106.5 C 190.112,107.689 186.946,109.356 184,111.5C 182.984,110.366 182.317,110.699 182,112.5C 181.329,111.748 180.496,111.414 179.5,111.5C 183.664,108.666 188.331,106.999 193.5,106.5 Z"/></g>
<g><path style="opacity:1" fill="#fcad70" d="M 604.5,111.5 C 602.448,114.032 599.782,115.699 596.5,116.5C 598.484,113.836 601.151,112.169 604.5,111.5 Z"/></g>
<g><path style="opacity:0.91" fill="#ffc496" d="M 124.5,113.5 C 126.23,114.026 127.564,115.026 128.5,116.5C 126.368,116.446 125.035,115.446 124.5,113.5 Z"/></g>
<g><path style="opacity:0.675" fill="#fdc99f" d="M 489.5,113.5 C 489.027,114.906 488.027,115.573 486.5,115.5C 486.973,114.094 487.973,113.427 489.5,113.5 Z"/></g>
<g><path style="opacity:0.733" fill="#fcc090" d="M 296.5,115.5 C 296.027,116.906 295.027,117.573 293.5,117.5C 293.973,116.094 294.973,115.427 296.5,115.5 Z"/></g>
<g><path style="opacity:0.784" fill="#fdbb86" d="M 486.5,115.5 C 486.027,116.906 485.027,117.573 483.5,117.5C 483.973,116.094 484.973,115.427 486.5,115.5 Z"/></g>
<g><path style="opacity:0.925" fill="#fcac6d" d="M 174.5,114.5 C 173.415,116.587 171.749,117.92 169.5,118.5C 170.585,116.413 172.251,115.08 174.5,114.5 Z"/></g>
<g><path style="opacity:0.561" fill="#fdcba2" d="M 596.5,116.5 C 595.5,118.167 594.167,119.5 592.5,120.5C 592.833,118.167 594.167,116.833 596.5,116.5 Z"/></g>
<g><path style="opacity:0.869" fill="#fec08f" d="M 705.5,109.5 C 705.5,115.167 705.5,120.833 705.5,126.5C 703.018,120.854 703.018,115.188 705.5,109.5 Z"/></g>
<g><path style="opacity:0.808" fill="#fec395" d="M 236.5,117.5 C 238.262,118.262 239.262,119.596 239.5,121.5C 237.738,120.738 236.738,119.404 236.5,117.5 Z"/></g>
<g><path style="opacity:0.702" fill="#fec496" d="M 709.5,109.5 C 709.953,114.38 710.286,119.38 710.5,124.5C 708.983,122.538 708.316,120.205 708.5,117.5C 708.703,114.803 709.036,112.136 709.5,109.5 Z"/></g>
<g><path style="opacity:0.992" fill="#feb57d" d="M 726.5,116.5 C 725.89,118.434 724.89,120.101 723.5,121.5C 723.241,119.011 724.241,117.344 726.5,116.5 Z"/></g>
<g><path style="opacity:0.373" fill="#fccba3" d="M 100.5,120.5 C 95.7971,120.437 91.1304,120.771 86.5,121.5C 89.0169,120.027 91.8502,119.36 95,119.5C 97.0326,119.506 98.866,119.839 100.5,120.5 Z"/></g>
<g><path style="opacity:0.016" fill="#ffe1ca" d="M 369.5,119.5 C 371.027,119.427 372.027,120.094 372.5,121.5C 370.973,121.573 369.973,120.906 369.5,119.5 Z"/></g>
<g><path style="opacity:0.427" fill="#fecca5" d="M 719.5,117.5 C 719.573,119.027 718.906,120.027 717.5,120.5C 717.427,118.973 718.094,117.973 719.5,117.5 Z"/></g>
<g><path style="opacity:0.255" fill="#fcd1af" d="M 210.5,121.5 C 203.471,121.377 196.471,121.71 189.5,122.5C 193.391,120.993 197.558,120.326 202,120.5C 205.021,120.502 207.854,120.836 210.5,121.5 Z"/></g>
<g><path style="opacity:0.929" fill="#fcaf72" d="M 293.5,117.5 C 292.415,119.587 290.749,120.92 288.5,121.5C 289.585,119.413 291.251,118.08 293.5,117.5 Z"/></g>
<g><path style="opacity:0.957" fill="#fbaa6a" d="M 483.5,117.5 C 482.415,119.587 480.749,120.92 478.5,121.5C 479.585,119.413 481.251,118.08 483.5,117.5 Z"/></g>
<g><path style="opacity:1" fill="#ffb27a" d="M 86.5,121.5 C 85.0351,122.737 83.3684,123.737 81.5,124.5C 81.5,123.5 81.5,122.5 81.5,121.5C 83.1667,121.5 84.8333,121.5 86.5,121.5 Z"/></g>
<g><path style="opacity:0.528" fill="#fcc99f" d="M 467.5,108.5 C 468.486,112.97 468.819,117.637 468.5,122.5C 458.167,122.5 447.833,122.5 437.5,122.5C 447.319,121.506 457.319,121.173 467.5,121.5C 467.5,117.167 467.5,112.833 467.5,108.5 Z"/></g>
<g><path style="opacity:0.059" fill="#fef0e4" d="M 559.5,119.5 C 560.496,119.414 561.329,119.748 562,120.5C 562.831,127.524 562.664,134.524 561.5,141.5C 560.478,141.145 559.811,140.478 559.5,139.5C 560.816,136.913 561.483,133.913 561.5,130.5C 561.333,127.5 561.167,124.5 561,121.5C 560.283,120.956 559.783,120.289 559.5,119.5 Z"/></g>
<g><path style="opacity:0.251" fill="#fee0c8" d="M 66.5,120.5 C 66.573,122.027 65.9063,123.027 64.5,123.5C 64.427,121.973 65.0937,120.973 66.5,120.5 Z"/></g>
<g><path style="opacity:1" fill="#fcaa6b" d="M 106.5,121.5 C 110.653,121.235 113.987,122.569 116.5,125.5C 113.011,124.342 109.678,123.009 106.5,121.5 Z"/></g>
<g><path style="opacity:1" fill="#fdaf73" d="M 216.5,122.5 C 219.32,122.087 221.32,123.087 222.5,125.5C 220.181,125.008 218.181,124.008 216.5,122.5 Z"/></g>
<g><path style="opacity:1" fill="#ffb176" d="M 81.5,124.5 C 80.8333,125.833 79.8333,126.833 78.5,127.5C 78.1205,124.433 79.1205,123.433 81.5,124.5 Z"/></g>
<g><path style="opacity:0.62" fill="#fdc497" d="M 239.5,121.5 C 241.262,122.262 242.262,123.596 242.5,125.5C 240.738,124.738 239.738,123.404 239.5,121.5 Z"/></g>
<g><path style="opacity:0.38" fill="#fbd0aa" d="M 405.5,108.5 C 405.833,108.5 406.167,108.5 406.5,108.5C 406.5,112.833 406.5,117.167 406.5,121.5C 412.5,121.5 418.5,121.5 424.5,121.5C 424.5,160.167 424.5,198.833 424.5,237.5C 428.833,237.5 433.167,237.5 437.5,237.5C 433.03,238.486 428.363,238.819 423.5,238.5C 423.5,199.833 423.5,161.167 423.5,122.5C 417.5,122.5 411.5,122.5 405.5,122.5C 405.5,117.833 405.5,113.167 405.5,108.5 Z"/></g>
<g><path style="opacity:0.898" fill="#fdbd8a" d="M 532.5,123.5 C 536.081,123.138 539.081,124.138 541.5,126.5C 538.341,125.669 535.341,124.669 532.5,123.5 Z"/></g>
<g><path style="opacity:1" fill="#ffbb88" d="M 723.5,121.5 C 723.25,123.674 722.25,125.341 720.5,126.5C 720.241,124.011 721.241,122.344 723.5,121.5 Z"/></g>
<g><path style="opacity:0.729" fill="#ffcca5" d="M 374.5,123.5 C 376.587,124.585 377.92,126.251 378.5,128.5C 376.413,127.415 375.08,125.749 374.5,123.5 Z"/></g>
<g><path style="opacity:0.788" fill="#fdbb87" d="M 478.5,121.5 C 477.415,123.587 475.749,124.92 473.5,125.5C 474.585,123.413 476.251,122.08 478.5,121.5 Z"/></g>
<g><path style="opacity:0.694" fill="#fec9a0" d="M 666.5,123.5 C 667.906,123.973 668.573,124.973 668.5,126.5C 667.094,126.027 666.427,125.027 666.5,123.5 Z"/></g>
<g><path style="opacity:0.851" fill="#ffc498" d="M 222.5,125.5 C 224.833,125.833 226.167,127.167 226.5,129.5C 224.833,128.5 223.5,127.167 222.5,125.5 Z"/></g>
<g><path style="opacity:1" fill="#fca969" d="M 342.5,123.5 C 346.093,123.641 349.593,124.308 353,125.5C 354.908,125.715 356.074,126.715 356.5,128.5C 351.748,126.807 347.081,125.14 342.5,123.5 Z"/></g>
<g><path style="opacity:0.431" fill="#fdd3b1" d="M 645.5,124.5 C 647.027,124.427 648.027,125.094 648.5,126.5C 646.973,126.573 645.973,125.906 645.5,124.5 Z"/></g>
<g><path style="opacity:0.4" fill="#fed2af" d="M 116.5,125.5 C 118.027,125.427 119.027,126.094 119.5,127.5C 117.973,127.573 116.973,126.906 116.5,125.5 Z"/></g>
<g><path style="opacity:0.71" fill="#fecda6" d="M 119.5,127.5 C 121.404,127.738 122.738,128.738 123.5,130.5C 121.596,130.262 120.262,129.262 119.5,127.5 Z"/></g>
<g><path style="opacity:0.651" fill="#fdc191" d="M 288.5,121.5 C 285.833,124.833 282.833,127.833 279.5,130.5C 281.5,126.5 284.5,123.5 288.5,121.5 Z"/></g>
<g><path style="opacity:0.71" fill="#fecba3" d="M 471.5,127.5 C 471.262,129.404 470.262,130.738 468.5,131.5C 468.738,129.596 469.738,128.262 471.5,127.5 Z"/></g>
<g><path style="opacity:0.612" fill="#fcbb87" d="M 668.5,126.5 C 669.906,126.973 670.573,127.973 670.5,129.5C 669.094,129.027 668.427,128.027 668.5,126.5 Z"/></g>
<g><path style="opacity:0.361" fill="#fdd4b2" d="M 356.5,128.5 C 358.027,128.427 359.027,129.094 359.5,130.5C 357.973,130.573 356.973,129.906 356.5,128.5 Z"/></g>
<g><path style="opacity:0.412" fill="#fecfab" d="M 546.5,128.5 C 548.027,128.427 549.027,129.094 549.5,130.5C 547.973,130.573 546.973,129.906 546.5,128.5 Z"/></g>
<g><path style="opacity:1" fill="#ffaf74" d="M 602.5,130.5 C 600.833,132.833 598.833,134.833 596.5,136.5C 596.399,131.928 598.399,129.928 602.5,130.5 Z"/></g>
<g><path style="opacity:0.933" fill="#fdba84" d="M 123.5,130.5 C 124.5,130.5 125.5,130.5 126.5,130.5C 125.5,133.167 124.5,133.167 123.5,130.5 Z"/></g>
<g><path style="opacity:0.337" fill="#fde0c8" d="M 738.5,129.5 C 738.209,130.649 737.376,131.316 736,131.5C 734.93,131.472 734.097,131.139 733.5,130.5C 734.097,131.139 734.93,131.472 736,131.5C 737.376,131.316 738.209,130.649 738.5,129.5 Z"/></g>
<g><path style="opacity:1" fill="#ffac6f" d="M 174.5,132.5 C 174.262,134.404 173.262,135.738 171.5,136.5C 171.343,135.127 171.51,133.793 172,132.5C 172.77,131.402 173.603,131.402 174.5,132.5 Z"/></g>
<g><path style="opacity:0.408" fill="#fdd3b0" d="M 359.5,130.5 C 361.027,130.427 362.027,131.094 362.5,132.5C 360.973,132.573 359.973,131.906 359.5,130.5 Z"/></g>
<g><path style="opacity:0.455" fill="#fdcea7" d="M 549.5,130.5 C 551.027,130.427 552.027,131.094 552.5,132.5C 550.973,132.573 549.973,131.906 549.5,130.5 Z"/></g>
<g><path style="opacity:0.298" fill="#fed4b4" d="M 670.5,129.5 C 671.906,129.973 672.573,130.973 672.5,132.5C 671.094,132.027 670.427,131.027 670.5,129.5 Z"/></g>
<g><path style="opacity:0.847" fill="#ffcfaa" d="M 362.5,132.5 C 366.167,134.167 368.833,136.833 370.5,140.5C 367.5,138.167 364.833,135.5 362.5,132.5 Z"/></g>
<g><path style="opacity:0.502" fill="#fecfaa" d="M 62.5,127.5 C 62.5905,130.152 61.9238,132.485 60.5,134.5C 60.4095,131.848 61.0762,129.515 62.5,127.5 Z"/></g>
<g><path style="opacity:1" fill="#ffac6e" d="M 489.5,134.5 C 487.833,136.833 485.833,138.833 483.5,140.5C 482.593,137.79 483.593,135.623 486.5,134C 487.577,133.53 488.577,133.697 489.5,134.5 Z"/></g>
<g><path style="opacity:0.471" fill="#fdcca4" d="M 277.5,132.5 C 277.573,134.027 276.906,135.027 275.5,135.5C 275.427,133.973 276.094,132.973 277.5,132.5 Z"/></g>
<g><path style="opacity:1" fill="#ffab6d" d="M 298.5,135.5 C 297.167,137.5 295.5,139.167 293.5,140.5C 293.08,136.247 294.746,134.58 298.5,135.5 Z"/></g>
<g><path style="opacity:0.682" fill="#ffd2af" d="M 554.5,134.5 C 557.167,135.167 558.833,136.833 559.5,139.5C 557.5,138.167 555.833,136.5 554.5,134.5 Z"/></g>
<g><path style="opacity:0.784" fill="#fec597" d="M 672.5,132.5 C 673.924,134.515 674.59,136.848 674.5,139.5C 673.076,137.485 672.41,135.152 672.5,132.5 Z"/></g>
<g><path style="opacity:0.514" fill="#fcc293" d="M 76.5,130.5 C 75.9492,133.807 75.6159,137.14 75.5,140.5C 74.1353,137.041 74.4686,133.708 76.5,130.5 Z"/></g>
<g><path style="opacity:0.839" fill="#fec599" d="M 246.5,134.5 C 248.483,137.799 249.483,141.466 249.5,145.5C 247.926,142.093 246.926,138.427 246.5,134.5 Z"/></g>
<g><path style="opacity:0.49" fill="#fdc89e" d="M 275.5,135.5 C 275.573,137.027 274.906,138.027 273.5,138.5C 273.427,136.973 274.094,135.973 275.5,135.5 Z"/></g>
<g><path style="opacity:0.557" fill="#fdc192" d="M 465.5,135.5 C 465.573,137.027 464.906,138.027 463.5,138.5C 463.427,136.973 464.094,135.973 465.5,135.5 Z"/></g>
<g><path style="opacity:1" fill="#f99342" d="M 709.5,137.5 C 708.603,142.14 708.436,146.806 709,151.5C 709.383,152.056 709.883,152.389 710.5,152.5C 711.609,152.557 712.609,152.89 713.5,153.5C 715.5,153.5 716.5,152.5 716.5,150.5C 716.328,149.508 716.662,148.842 717.5,148.5C 718.906,148.027 719.573,147.027 719.5,145.5C 720.906,145.027 721.573,144.027 721.5,142.5C 722.906,142.027 723.573,141.027 723.5,139.5C 728.578,135.236 733.412,135.569 738,140.5C 739.732,146.161 739.899,151.828 738.5,157.5C 737.292,158.234 735.959,158.567 734.5,158.5C 735.108,153.056 734.442,148.056 732.5,143.5C 730.712,143.215 729.045,143.548 727.5,144.5C 725.144,147.9 722.811,151.233 720.5,154.5C 719.094,154.973 718.427,155.973 718.5,157.5C 713.49,160.667 709.157,160.001 705.5,155.5C 705.5,149.5 705.5,143.5 705.5,137.5C 706.833,136.167 708.167,136.167 709.5,137.5 Z"/></g>
<g><path style="opacity:0.314" fill="#fed5b5" d="M 273.5,138.5 C 273.573,140.027 272.906,141.027 271.5,141.5C 271.427,139.973 272.094,138.973 273.5,138.5 Z"/></g>
<g><path style="opacity:0.384" fill="#fdcea8" d="M 463.5,138.5 C 463.573,140.027 462.906,141.027 461.5,141.5C 461.427,139.973 462.094,138.973 463.5,138.5 Z"/></g>
<g><path style="opacity:0.773" fill="#fec191" d="M 723.5,139.5 C 723.573,141.027 722.906,142.027 721.5,142.5C 721.427,140.973 722.094,139.973 723.5,139.5 Z"/></g>
<g><path style="opacity:0.867" fill="#ffc89d" d="M 373.5,144.5 C 375.446,145.035 376.446,146.368 376.5,148.5C 375.026,147.564 374.026,146.23 373.5,144.5 Z"/></g>
<g><path style="opacity:0.463" fill="#fdc99f" d="M 721.5,142.5 C 721.573,144.027 720.906,145.027 719.5,145.5C 719.427,143.973 720.094,142.973 721.5,142.5 Z"/></g>
<g><path style="opacity:0.876" fill="#ffc395" d="M 705.5,137.5 C 705.5,143.5 705.5,149.5 705.5,155.5C 702.995,149.519 702.995,143.519 705.5,137.5 Z"/></g>
<g><path style="opacity:0.696" fill="#fec598" d="M 709.5,137.5 C 709.953,142.38 710.286,147.38 710.5,152.5C 709.883,152.389 709.383,152.056 709,151.5C 708.436,146.806 708.603,142.14 709.5,137.5 Z"/></g>
<g><path style="opacity:0.286" fill="#fedbbf" d="M 719.5,145.5 C 719.573,147.027 718.906,148.027 717.5,148.5C 717.427,146.973 718.094,145.973 719.5,145.5 Z"/></g>
<g><path style="opacity:0.38" fill="#fdd4b3" d="M 77.5,146.5 C 78.9063,146.973 79.573,147.973 79.5,149.5C 78.0937,149.027 77.427,148.027 77.5,146.5 Z"/></g>
<g><path style="opacity:0.812" fill="#ffcba3" d="M 268.5,147.5 C 268.472,150.916 267.472,153.916 265.5,156.5C 265.928,153.215 266.928,150.215 268.5,147.5 Z"/></g>
<g><path style="opacity:0.682" fill="#fdc191" d="M 716.5,150.5 C 716.5,152.5 715.5,153.5 713.5,153.5C 714.167,152.167 715.167,151.167 716.5,150.5 Z"/></g>
<g><path style="opacity:0.804" fill="#fdc599" d="M 457.5,150.5 C 457.074,154.427 456.074,158.093 454.5,161.5C 454.517,157.466 455.517,153.799 457.5,150.5 Z"/></g>
<g><path style="opacity:0.008" fill="#ffe4ce" d="M 720.5,154.5 C 720.573,156.027 719.906,157.027 718.5,157.5C 718.427,155.973 719.094,154.973 720.5,154.5 Z"/></g>
<g><path style="opacity:1" fill="#feb074" d="M 85.5,154.5 C 87.7952,155.475 89.7952,156.808 91.5,158.5C 90.5041,158.414 89.6708,158.748 89,159.5C 87.8596,157.721 86.693,156.054 85.5,154.5 Z"/></g>
<g><path style="opacity:0.598" fill="#fdcda6" d="M 732.5,143.5 C 734.442,148.056 735.108,153.056 734.5,158.5C 735.959,158.567 737.292,158.234 738.5,157.5C 738.209,158.649 737.376,159.316 736,159.5C 734.338,159.612 733.171,158.946 732.5,157.5C 733.828,152.803 733.828,148.136 732.5,143.5 Z"/></g>
<g><path style="opacity:0.008" fill="#ffdec3" d="M 68.5,160.5 C 69.8333,161.167 70.8333,162.167 71.5,163.5C 69.5,163.5 68.5,162.5 68.5,160.5 Z"/></g>
<g><path style="opacity:0.45" fill="#fbd1ad" d="M 235.5,153.5 C 236.498,181.328 236.831,209.328 236.5,237.5C 241.167,237.5 245.833,237.5 250.5,237.5C 250.5,209.5 250.5,181.5 250.5,153.5C 251.498,181.662 251.831,209.995 251.5,238.5C 246.167,238.5 240.833,238.5 235.5,238.5C 235.5,210.167 235.5,181.833 235.5,153.5 Z"/></g>
<g><path style="opacity:0.325" fill="#fdd5b5" d="M 728.5,165.5 C 722.797,165.375 717.13,165.708 711.5,166.5C 714.526,164.981 717.859,164.315 721.5,164.5C 724.025,164.503 726.359,164.837 728.5,165.5 Z"/></g>
<g><path style="opacity:0.404" fill="#fed2af" d="M 73.5,165.5 C 75.0269,165.427 76.0269,166.094 76.5,167.5C 74.9731,167.573 73.9731,166.906 73.5,165.5 Z"/></g>
<g><path style="opacity:0.502" fill="#fac598" d="M 675.5,143.5 C 676.314,145.631 676.814,147.964 677,150.5C 677.5,179.498 677.667,208.498 677.5,237.5C 677.167,237.5 676.833,237.5 676.5,237.5C 676.771,206.152 676.438,174.819 675.5,143.5 Z"/></g>
<g><path style="opacity:1" fill="#f99241" d="M 728.5,165.5 C 729.959,165.433 731.292,165.766 732.5,166.5C 733.326,168.264 734.659,169.598 736.5,170.5C 737.79,171.058 738.623,172.058 739,173.5C 741.339,182.184 738.505,188.351 730.5,192C 724.418,192.788 718.418,192.621 712.5,191.5C 712.027,190.094 711.027,189.427 709.5,189.5C 708.833,188.167 707.833,187.167 706.5,186.5C 705.662,186.158 705.328,185.492 705.5,184.5C 705.5,180.5 705.5,176.5 705.5,172.5C 706.906,172.027 707.573,171.027 707.5,169.5C 708.262,167.738 709.596,166.738 711.5,166.5C 717.13,165.708 722.797,165.375 728.5,165.5 Z M 729.5,171.5 C 729.973,172.906 730.973,173.573 732.5,173.5C 734.472,178.396 733.472,182.396 729.5,185.5C 724.174,186.74 718.841,186.74 713.5,185.5C 712.833,184.167 711.833,183.167 710.5,182.5C 709.994,178.993 710.66,175.826 712.5,173C 718.044,171.596 723.71,171.096 729.5,171.5 Z"/></g>
<g><path style="opacity:0.35" fill="#fcd4b3" d="M 659.5,142.5 C 661.018,145.534 661.851,148.867 662,152.5C 662.5,180.831 662.667,209.165 662.5,237.5C 667.167,237.5 671.833,237.5 676.5,237.5C 676.833,237.5 677.167,237.5 677.5,237.5C 672.36,238.488 667.026,238.821 661.5,238.5C 661.667,211.165 661.5,183.831 661,156.5C 660.565,151.816 660.065,147.149 659.5,142.5 Z"/></g>
<g><path style="opacity:0.643" fill="#fec294" d="M 732.5,166.5 C 734.773,166.957 736.106,168.29 736.5,170.5C 734.659,169.598 733.326,168.264 732.5,166.5 Z"/></g>
<g><path style="opacity:0.31" fill="#fed6b5" d="M 78.5,168.5 C 80.0269,168.427 81.0269,169.094 81.5,170.5C 79.9731,170.573 78.9731,169.906 78.5,168.5 Z"/></g>
<g><path style="opacity:0.412" fill="#fdcda6" d="M 707.5,169.5 C 707.573,171.027 706.906,172.027 705.5,172.5C 705.427,170.973 706.094,169.973 707.5,169.5 Z"/></g>
<g><path style="opacity:0.71" fill="#fecda6" d="M 86.5,172.5 C 89.1522,172.41 91.4855,173.076 93.5,174.5C 90.8478,174.59 88.5145,173.924 86.5,172.5 Z"/></g>
<g><path style="opacity:0.475" fill="#fecea7" d="M 729.5,171.5 C 731.027,171.427 732.027,172.094 732.5,173.5C 730.973,173.573 729.973,172.906 729.5,171.5 Z"/></g>
<g><path style="opacity:0.733" fill="#fec89d" d="M 93.5,174.5 C 96.1522,174.41 98.4855,175.076 100.5,176.5C 97.8478,176.59 95.5145,175.924 93.5,174.5 Z"/></g>
<g><path style="opacity:1" fill="#fdac6e" d="M 105.5,178.5 C 110.126,178.316 113.792,179.983 116.5,183.5C 112.646,182.07 108.979,180.403 105.5,178.5 Z"/></g>
<g><path style="opacity:0.839" fill="#fec395" d="M 705.5,172.5 C 705.5,176.5 705.5,180.5 705.5,184.5C 702.959,180.521 702.959,176.521 705.5,172.5 Z"/></g>
<g><path style="opacity:0.345" fill="#fed9bc" d="M 135.5,180.5 C 136.906,180.973 137.573,181.973 137.5,183.5C 136.094,183.027 135.427,182.027 135.5,180.5 Z"/></g>
<g><path style="opacity:0.6" fill="#fed4b2" d="M 710.5,182.5 C 711.833,183.167 712.833,184.167 713.5,185.5C 711.5,185.5 710.5,184.5 710.5,182.5 Z"/></g>
<g><path style="opacity:0.576" fill="#fdc192" d="M 116.5,183.5 C 118.027,183.427 119.027,184.094 119.5,185.5C 117.973,185.573 116.973,184.906 116.5,183.5 Z"/></g>
<g><path style="opacity:0.749" fill="#fecba4" d="M 281.5,182.5 C 282.612,184.599 283.279,186.933 283.5,189.5C 281.837,187.562 281.171,185.228 281.5,182.5 Z"/></g>
<g><path style="opacity:0.63" fill="#fdc597" d="M 713.5,185.5 C 718.841,186.74 724.174,186.74 729.5,185.5C 724.167,188.167 718.833,188.167 713.5,185.5 Z"/></g>
<g><path style="opacity:0.016" fill="#ffdec5" d="M 706.5,186.5 C 707.833,187.167 708.833,188.167 709.5,189.5C 707.5,189.5 706.5,188.5 706.5,186.5 Z"/></g>
<g><path style="opacity:0.925" fill="#ffc497" d="M 382.5,181.5 C 382.664,184.187 382.497,186.854 382,189.5C 381.8,191.32 380.966,192.653 379.5,193.5C 380.51,189.385 381.51,185.385 382.5,181.5 Z"/></g>
<g><path style="opacity:0.09" fill="#fedfc6" d="M 454.5,186.5 C 455.768,188.905 456.435,191.572 456.5,194.5C 454.96,192.162 454.294,189.495 454.5,186.5 Z"/></g>
<g><path style="opacity:0.353" fill="#fed0ad" d="M 709.5,189.5 C 711.027,189.427 712.027,190.094 712.5,191.5C 710.973,191.573 709.973,190.906 709.5,189.5 Z"/></g>
<g><path style="opacity:1" fill="#fdad70" d="M 472.5,187.5 C 474.147,191.424 475.814,195.424 477.5,199.5C 476.279,198.972 475.113,198.305 474,197.5C 473.39,194.173 472.89,190.839 472.5,187.5 Z"/></g>
<g><path style="opacity:0.251" fill="#fce3ce" d="M 592.5,143.5 C 591.53,175.142 591.196,206.809 591.5,238.5C 585.974,238.821 580.64,238.488 575.5,237.5C 575.833,237.5 576.167,237.5 576.5,237.5C 581.167,237.5 585.833,237.5 590.5,237.5C 590.333,207.165 590.5,176.832 591,146.5C 591.232,145.263 591.732,144.263 592.5,143.5 Z"/></g>
<g><path style="opacity:0.875" fill="#ffcea9" d="M 709.5,195.5 C 708.167,195.5 706.833,195.5 705.5,195.5C 705.5,197.833 705.5,200.167 705.5,202.5C 704.225,200.392 703.725,198.058 704,195.5C 705.943,194.193 707.777,194.193 709.5,195.5 Z"/></g>
<g><path style="opacity:0.608" fill="#fcc69a" d="M 139.5,187.5 C 140.6,189.277 141.434,191.277 142,193.5C 142.817,199.016 142.651,204.35 141.5,209.5C 141.848,202.045 141.182,194.712 139.5,187.5 Z"/></g>
<g><path style="opacity:0.069" fill="#fee4cf" d="M 125.5,193.5 C 126.222,193.918 126.722,194.584 127,195.5C 127.814,200.02 127.647,204.354 126.5,208.5C 126.663,203.453 126.329,198.453 125.5,193.5 Z"/></g>
<g><path style="opacity:0.765" fill="#fecda6" d="M 709.5,197.5 C 710.458,199.302 711.125,201.302 711.5,203.5C 709.72,202.01 709.054,200.01 709.5,197.5 Z"/></g>
<g><path style="opacity:0.412" fill="#fdd0aa" d="M 288.5,201.5 C 289.906,201.973 290.573,202.973 290.5,204.5C 289.094,204.027 288.427,203.027 288.5,201.5 Z"/></g>
<g><path style="opacity:0.345" fill="#fdd7b7" d="M 478.5,201.5 C 479.906,201.973 480.573,202.973 480.5,204.5C 479.094,204.027 478.427,203.027 478.5,201.5 Z"/></g>
<g><path style="opacity:0.318" fill="#fedabd" d="M 375.5,202.5 C 375.573,204.027 374.906,205.027 373.5,205.5C 373.427,203.973 374.094,202.973 375.5,202.5 Z"/></g>
<g><path style="opacity:0.495" fill="#fac292" d="M 711.5,203.5 C 720.599,204.141 729.599,204.808 738.5,205.5C 738.167,205.5 737.833,205.5 737.5,205.5C 728.435,206.136 719.769,205.47 711.5,203.5 Z"/></g>
<g><path style="opacity:0.933" fill="#feb985" d="M 460.5,205.5 C 462.048,205.821 462.715,206.821 462.5,208.5C 461.599,207.71 460.932,206.71 460.5,205.5 Z"/></g>
<g><path style="opacity:0.999" fill="#f58120" d="M 709.5,195.5 C 709.5,196.167 709.5,196.833 709.5,197.5C 709.054,200.01 709.72,202.01 711.5,203.5C 719.769,205.47 728.435,206.136 737.5,205.5C 737.5,206.833 737.5,208.167 737.5,209.5C 726.833,209.5 716.167,209.5 705.5,209.5C 705.328,207.508 705.995,205.842 707.5,204.5C 707.376,203.893 707.043,203.56 706.5,203.5C 705.833,203.5 705.5,203.167 705.5,202.5C 705.5,200.167 705.5,197.833 705.5,195.5C 706.833,195.5 708.167,195.5 709.5,195.5 Z"/></g>
<g><path style="opacity:0.937" fill="#feb883" d="M 64.5,206.5 C 63.609,207.11 62.609,207.443 61.5,207.5C 62.221,205.618 63.221,205.285 64.5,206.5 Z"/></g>
<g><path style="opacity:0.529" fill="#fdc89c" d="M 290.5,204.5 C 291.906,204.973 292.573,205.973 292.5,207.5C 291.094,207.027 290.427,206.027 290.5,204.5 Z"/></g>
<g><path style="opacity:0.459" fill="#fdcfa9" d="M 480.5,204.5 C 481.906,204.973 482.573,205.973 482.5,207.5C 481.094,207.027 480.427,206.027 480.5,204.5 Z"/></g>
<g><path style="opacity:0.452" fill="#fccea8" d="M 706.5,203.5 C 707.043,203.56 707.376,203.893 707.5,204.5C 705.995,205.842 705.328,207.508 705.5,209.5C 705.5,209.833 705.5,210.167 705.5,210.5C 704.102,207.993 704.436,205.66 706.5,203.5 Z"/></g>
<g><path style="opacity:0.796" fill="#fecaa1" d="M 64.5,206.5 C 66.5869,207.585 67.9202,209.251 68.5,211.5C 66.4131,210.415 65.0798,208.749 64.5,206.5 Z"/></g>
<g><path style="opacity:1" fill="#ffb57f" d="M 271.5,206.5 C 273.759,207.344 274.759,209.011 274.5,211.5C 272.75,210.341 271.75,208.674 271.5,206.5 Z"/></g>
<g><path style="opacity:0.506" fill="#fdcba3" d="M 373.5,205.5 C 373.573,207.027 372.906,208.027 371.5,208.5C 371.427,206.973 372.094,205.973 373.5,205.5 Z"/></g>
<g><path style="opacity:0.832" fill="#faa55e" d="M 737.5,205.5 C 737.833,205.5 738.167,205.5 738.5,205.5C 739.451,206.919 739.784,208.585 739.5,210.5C 728.167,210.5 716.833,210.5 705.5,210.5C 705.5,210.167 705.5,209.833 705.5,209.5C 716.167,209.5 726.833,209.5 737.5,209.5C 737.5,208.167 737.5,206.833 737.5,205.5 Z"/></g>
<g><path style="opacity:0.847" fill="#fdb77f" d="M 61.5,207.5 C 60.0892,209.914 58.0892,211.581 55.5,212.5C 56.9108,210.086 58.9108,208.419 61.5,207.5 Z"/></g>
<g><path style="opacity:0.055" fill="#fef4ec" d="M 560.5,209.5 C 560.56,208.957 560.893,208.624 561.5,208.5C 562.817,214.988 562.817,221.322 561.5,227.5C 561.823,221.31 561.49,215.31 560.5,209.5 Z"/></g>
<g><path style="opacity:0.678" fill="#fecda5" d="M 55.5,212.5 C 54.3995,213.605 53.7329,214.938 53.5,216.5C 52.7109,216.217 52.0442,215.717 51.5,215C 52.4709,213.519 53.8042,212.685 55.5,212.5 Z"/></g>
<g><path style="opacity:0.62" fill="#fdc69a" d="M 556.5,213.5 C 555.738,215.262 554.404,216.262 552.5,216.5C 553.262,214.738 554.596,213.738 556.5,213.5 Z"/></g>
<g><path style="opacity:0.71" fill="#fdbb86" d="M 365.5,214.5 C 364.738,216.262 363.404,217.262 361.5,217.5C 362.262,215.738 363.596,214.738 365.5,214.5 Z"/></g>
<g><path style="opacity:0.455" fill="#fdcca5" d="M 124.5,215.5 C 124.573,217.027 123.906,218.027 122.5,218.5C 122.427,216.973 123.094,215.973 124.5,215.5 Z"/></g>
<g><path style="opacity:0.667" fill="#fdc89d" d="M 552.5,216.5 C 552.027,217.906 551.027,218.573 549.5,218.5C 549.973,217.094 550.973,216.427 552.5,216.5 Z"/></g>
<g><path style="opacity:0.902" fill="#ffc08f" d="M 305.5,218.5 C 306.71,218.932 307.71,219.599 308.5,220.5C 306.821,220.715 305.821,220.048 305.5,218.5 Z"/></g>
<g><path style="opacity:1" fill="#fca663" d="M 361.5,217.5 C 359.414,221.225 356.08,222.892 351.5,222.5C 354.795,220.853 358.128,219.186 361.5,217.5 Z"/></g>
<g><path style="opacity:0.871" fill="#ffc396" d="M 495.5,218.5 C 496.71,218.932 497.71,219.599 498.5,220.5C 496.821,220.715 495.821,220.048 495.5,218.5 Z"/></g>
<g><path style="opacity:1" fill="#f99343" d="M 705.5,217.5 C 706.833,217.5 708.167,217.5 709.5,217.5C 709.183,221.702 709.517,225.702 710.5,229.5C 710.5,230.833 711.167,231.5 712.5,231.5C 718.115,232.573 723.782,232.74 729.5,232C 731.35,231.31 732.684,230.144 733.5,228.5C 734.482,225.038 734.815,221.371 734.5,217.5C 735.833,217.5 737.167,217.5 738.5,217.5C 739.794,221.934 739.794,226.267 738.5,230.5C 735.676,230.989 734.343,232.656 734.5,235.5C 733.127,235.343 731.793,235.51 730.5,236C 730.833,236.333 731.167,236.667 731.5,237C 730.584,237.278 729.918,237.778 729.5,238.5C 722.795,240.108 716.128,239.608 709.5,237C 707.536,235.549 706.203,233.716 705.5,231.5C 705.5,226.833 705.5,222.167 705.5,217.5 Z"/></g>
<g><path style="opacity:0.467" fill="#fbc79d" d="M 738.5,217.5 C 737.167,217.5 735.833,217.5 734.5,217.5C 734.815,221.371 734.482,225.038 733.5,228.5C 733.5,224.5 733.5,220.5 733.5,216.5C 735.415,216.216 737.081,216.549 738.5,217.5 Z"/></g>
<g><path style="opacity:0.882" fill="#ffc69a" d="M 78.5,220.5 C 80.2303,221.026 81.5637,222.026 82.5,223.5C 80.368,223.446 79.0347,222.446 78.5,220.5 Z"/></g>
<g><path style="opacity:0.561" fill="#ffd4b3" d="M 57.5,222.5 C 60.7642,224.094 63.4309,226.427 65.5,229.5C 62.2358,227.906 59.5691,225.573 57.5,222.5 Z"/></g>
<g><path style="opacity:1" fill="#ffad70" d="M 134.5,223.5 C 134.262,225.404 133.262,226.738 131.5,227.5C 131.343,226.127 131.51,224.793 132,223.5C 132.77,222.402 133.603,222.402 134.5,223.5 Z"/></g>
<g><path style="opacity:0.847" fill="#fec293" d="M 705.5,217.5 C 705.5,222.167 705.5,226.833 705.5,231.5C 703.046,226.865 703.046,222.198 705.5,217.5 Z"/></g>
<g><path style="opacity:0.029" fill="#feeee1" d="M 705.5,217.5 C 706.919,216.549 708.585,216.216 710.5,216.5C 710.5,220.833 710.5,225.167 710.5,229.5C 709.517,225.702 709.183,221.702 709.5,217.5C 708.167,217.5 706.833,217.5 705.5,217.5 Z"/></g>
<g><path style="opacity:0.82" fill="#fdbc88" d="M 116.5,223.5 C 114.081,225.862 111.081,226.862 107.5,226.5C 110.341,225.331 113.341,224.331 116.5,223.5 Z"/></g>
<g><path style="opacity:0.082" fill="#ffe0c8" d="M 346.5,224.5 C 341.935,226.04 337.102,226.707 332,226.5C 328.317,226.499 324.817,226.165 321.5,225.5C 329.862,225.665 338.195,225.332 346.5,224.5 Z"/></g>
<g><path style="opacity:0.086" fill="#ffe1cb" d="M 536.5,224.5 C 532.104,226.033 527.437,226.7 522.5,226.5C 518.982,226.498 515.649,226.165 512.5,225.5C 520.529,225.656 528.529,225.323 536.5,224.5 Z"/></g>
<g><path style="opacity:0.796" fill="#fec699" d="M 287.5,226.5 C 289.404,226.738 290.738,227.738 291.5,229.5C 289.596,229.262 288.262,228.262 287.5,226.5 Z"/></g>
<g><path style="opacity:0.745" fill="#fec598" d="M 478.5,227.5 C 480.027,227.427 481.027,228.094 481.5,229.5C 479.973,229.573 478.973,228.906 478.5,227.5 Z"/></g>
<g><path style="opacity:0.627" fill="#fdbb87" d="M 291.5,229.5 C 293.027,229.427 294.027,230.094 294.5,231.5C 292.973,231.573 291.973,230.906 291.5,229.5 Z"/></g>
<g><path style="opacity:0.678" fill="#fdbf8d" d="M 481.5,229.5 C 483.404,229.738 484.738,230.738 485.5,232.5C 483.596,232.262 482.262,231.262 481.5,229.5 Z"/></g>
<g><path style="opacity:0.643" fill="#ffd1ad" d="M 710.5,229.5 C 711.5,229.833 712.167,230.5 712.5,231.5C 711.167,231.5 710.5,230.833 710.5,229.5 Z"/></g>
<g><path style="opacity:0.537" fill="#fdc79a" d="M 67.5,231.5 C 69.0269,231.427 70.0269,232.094 70.5,233.5C 68.9731,233.573 67.9731,232.906 67.5,231.5 Z"/></g>
<g><path style="opacity:0.286" fill="#fed9bc" d="M 485.5,232.5 C 487.027,232.427 488.027,233.094 488.5,234.5C 486.973,234.573 485.973,233.906 485.5,232.5 Z"/></g>
<g><path style="opacity:0.565" fill="#fdc08f" d="M 70.5,233.5 C 72.0269,233.427 73.0269,234.094 73.5,235.5C 71.9731,235.573 70.9731,234.906 70.5,233.5 Z"/></g>
<g><path style="opacity:0.329" fill="#fed4b3" d="M 297.5,233.5 C 299.027,233.427 300.027,234.094 300.5,235.5C 298.973,235.573 297.973,234.906 297.5,233.5 Z"/></g>
<g><path style="opacity:1" fill="#feae71" d="M 738.5,230.5 C 737.347,235.243 734.347,237.91 729.5,238.5C 729.918,237.778 730.584,237.278 731.5,237C 731.167,236.667 730.833,236.333 730.5,236C 731.793,235.51 733.127,235.343 734.5,235.5C 734.343,232.656 735.676,230.989 738.5,230.5 Z"/></g>
<g><path style="opacity:0.325" fill="#fdd4b3" d="M 73.5,235.5 C 75.0269,235.427 76.0269,236.094 76.5,237.5C 74.9731,237.573 73.9731,236.906 73.5,235.5 Z"/></g>
<g><path style="opacity:0.773" fill="#fecaa1" d="M 307.5,238.5 C 309.898,238.259 311.898,238.926 313.5,240.5C 311.214,240.405 309.214,239.738 307.5,238.5 Z"/></g>
<g><path style="opacity:0.792" fill="#fdc395" d="M 497.5,238.5 C 500.152,238.41 502.485,239.076 504.5,240.5C 501.848,240.59 499.515,239.924 497.5,238.5 Z"/></g>
</svg>
